<svg viewBox="0 0 840 540" xmlns="http://www.w3.org/2000/svg" font-family="Inter, system-ui, -apple-system, Segoe UI, Roboto, sans-serif">
  <defs>
    <linearGradient id="brand" x1="0" y1="0" x2="1" y2="1">
      <stop offset="0" stop-color="#6366F1"/>
      <stop offset="1" stop-color="#8B5CF6"/>
    </linearGradient>
    <linearGradient id="brandV" x1="0" y1="0" x2="0" y2="1">
      <stop offset="0" stop-color="#8B5CF6"/>
      <stop offset="1" stop-color="#6366F1"/>
    </linearGradient>
    <linearGradient id="areaFill" x1="0" y1="0" x2="0" y2="1">
      <stop offset="0" stop-color="#6366F1" stop-opacity="0.28"/>
      <stop offset="1" stop-color="#6366F1" stop-opacity="0"/>
    </linearGradient>
    <linearGradient id="ring" x1="0" y1="0" x2="1" y2="1">
      <stop offset="0" stop-color="#6366F1"/>
      <stop offset="1" stop-color="#8B5CF6"/>
    </linearGradient>
    <filter id="soft" x="-20%" y="-20%" width="140%" height="140%">
      <feDropShadow dx="0" dy="4" stdDeviation="8" flood-color="#0F172A" flood-opacity="0.08"/>
    </filter>
  </defs>

  <!-- Page background -->
  <rect width="840" height="540" fill="#F1F5F9"/>

  <!-- ===================== SIDEBAR ===================== -->
  <rect x="0" y="0" width="196" height="540" fill="#FFFFFF"/>
  <line x1="196" y1="0" x2="196" y2="540" stroke="#E2E8F0" stroke-width="1"/>

  <!-- Logo -->
  <rect x="24" y="26" width="30" height="30" rx="9" fill="url(#brand)"/>
  <circle cx="39" cy="41" r="5.5" fill="#FFFFFF"/>
  <text x="64" y="46" font-size="16" font-weight="700" fill="#0F172A" letter-spacing="-0.3">Insight</text>

  <!-- Nav: active item -->
  <rect x="16" y="92" width="164" height="42" rx="12" fill="url(#brand)" filter="url(#soft)"/>
  <rect x="32" y="106" width="15" height="15" rx="3.5" fill="#FFFFFF" opacity="0.95"/>
  <rect x="34.5" y="108.5" width="4" height="4" rx="1" fill="#8B5CF6"/>
  <rect x="40.5" y="108.5" width="4" height="4" rx="1" fill="#8B5CF6"/>
  <rect x="34.5" y="114.5" width="4" height="4" rx="1" fill="#8B5CF6"/>
  <rect x="40.5" y="114.5" width="4" height="4" rx="1" fill="#8B5CF6"/>
  <text x="58" y="118" font-size="13" font-weight="600" fill="#FFFFFF">Tableau de bord</text>

  <!-- Nav: inactive items -->
  <g fill="#64748B" font-size="13" font-weight="500">
    <g>
      <path d="M33 154 h12 M33 158.5 h12 M33 163 h8" stroke="#94A3B8" stroke-width="2" stroke-linecap="round"/>
      <text x="58" y="163">Revenus</text>
    </g>
    <g>
      <circle cx="36.5" cy="200" r="3.4" fill="none" stroke="#94A3B8" stroke-width="2"/>
      <path d="M31 209 a5.5 5.5 0 0 1 11 0" fill="none" stroke="#94A3B8" stroke-width="2" stroke-linecap="round"/>
      <text x="58" y="209">Utilisateurs</text>
    </g>
    <g>
      <path d="M32 248 l4 4 8 -9" fill="none" stroke="#94A3B8" stroke-width="2" stroke-linecap="round" stroke-linejoin="round"/>
      <text x="58" y="253">Conversions</text>
    </g>
    <g>
      <circle cx="38" cy="295" r="6" fill="none" stroke="#94A3B8" stroke-width="2"/>
      <path d="M38 295 l3 -3.5" stroke="#94A3B8" stroke-width="2" stroke-linecap="round"/>
      <text x="58" y="299">Rapports</text>
    </g>
    <g>
      <circle cx="38" cy="340" r="2.6" fill="none" stroke="#94A3B8" stroke-width="2"/>
      <path d="M38 332 v-2 M38 350 v-2 M30.6 340 h-2 M47.4 340 h-2 M32.6 334.6 l-1.4 -1.4 M44.8 345.4 l-1.4 -1.4 M44.8 334.6 l1.4 -1.4 M32.6 345.4 l1.4 -1.4" stroke="#94A3B8" stroke-width="2" stroke-linecap="round"/>
      <text x="58" y="345">Paramètres</text>
    </g>
  </g>

  <!-- Sidebar footer upgrade card -->
  <rect x="16" y="438" width="164" height="78" rx="14" fill="#F8FAFC" stroke="#E2E8F0"/>
  <rect x="28" y="450" width="26" height="26" rx="8" fill="url(#brandV)"/>
  <path d="M41 457 l3.6 7 -3.6 -2 -3.6 2 z" fill="#FFFFFF"/>
  <text x="64" y="461" font-size="11.5" font-weight="600" fill="#0F172A">Passer Pro</text>
  <text x="64" y="475" font-size="10" fill="#94A3B8">Analyses avancées</text>
  <rect x="28" y="486" width="140" height="22" rx="8" fill="url(#brand)"/>
  <text x="98" y="501" font-size="11" font-weight="600" fill="#FFFFFF" text-anchor="middle">Mettre à niveau</text>

  <!-- ===================== TOP BAR ===================== -->
  <text x="224" y="42" font-size="20" font-weight="700" fill="#0F172A" letter-spacing="-0.4">Tableau de bord</text>
  <text x="224" y="60" font-size="12" fill="#94A3B8">Aperçu de la performance · Cette semaine</text>

  <!-- Search pill -->
  <rect x="560" y="24" width="170" height="36" rx="18" fill="#FFFFFF" stroke="#E2E8F0"/>
  <circle cx="582" cy="42" r="5.5" fill="none" stroke="#94A3B8" stroke-width="2"/>
  <path d="M586 46 l4 4" stroke="#94A3B8" stroke-width="2" stroke-linecap="round"/>
  <text x="598" y="46" font-size="12" fill="#94A3B8">Rechercher…</text>

  <!-- Notification -->
  <rect x="742" y="24" width="36" height="36" rx="12" fill="#FFFFFF" stroke="#E2E8F0"/>
  <path d="M760 33 a6 6 0 0 1 6 6 v4 l2 3 h-16 l2 -3 v-4 a6 6 0 0 1 6 -6 z" fill="none" stroke="#64748B" stroke-width="1.8" stroke-linejoin="round"/>
  <path d="M757 49 a3 3 0 0 0 6 0" fill="none" stroke="#64748B" stroke-width="1.8"/>
  <circle cx="767" cy="31" r="3.5" fill="#F43F5E"/>

  <!-- Avatar -->
  <circle cx="808" cy="42" r="18" fill="url(#brandV)"/>
  <text x="808" y="47" font-size="13" font-weight="700" fill="#FFFFFF" text-anchor="middle">CF</text>

  <!-- ===================== KPI CARDS ===================== -->
  <!-- KPI 1 : Revenus -->
  <rect x="224" y="84" width="178" height="96" rx="14" fill="#FFFFFF" stroke="#E2E8F0" filter="url(#soft)"/>
  <rect x="240" y="100" width="30" height="30" rx="9" fill="#EEF2FF"/>
  <path d="M255 108 v14 M251 118 a4 3.5 0 0 0 8 0 a4 3.5 0 0 0 -8 0" stroke="#6366F1" stroke-width="2" stroke-linecap="round" fill="none"/>
  <rect x="346" y="105" width="44" height="20" rx="10" fill="#ECFDF5"/>
  <text x="368" y="119" font-size="11" font-weight="700" fill="#10B981" text-anchor="middle">+12,4%</text>
  <text x="240" y="156" font-size="24" font-weight="700" fill="#0F172A" letter-spacing="-0.5">€48,2k</text>
  <text x="240" y="172" font-size="12" fill="#64748B">Revenus</text>

  <!-- KPI 2 : Utilisateurs actifs -->
  <rect x="414" y="84" width="178" height="96" rx="14" fill="#FFFFFF" stroke="#E2E8F0" filter="url(#soft)"/>
  <rect x="430" y="100" width="30" height="30" rx="9" fill="#F5F3FF"/>
  <circle cx="443" cy="111" r="3.2" fill="none" stroke="#8B5CF6" stroke-width="2"/>
  <path d="M438 121 a5 5 0 0 1 10 0" stroke="#8B5CF6" stroke-width="2" fill="none" stroke-linecap="round"/>
  <rect x="536" y="105" width="44" height="20" rx="10" fill="#ECFDF5"/>
  <text x="558" y="119" font-size="11" font-weight="700" fill="#10B981" text-anchor="middle">+8,1%</text>
  <text x="430" y="156" font-size="24" font-weight="700" fill="#0F172A" letter-spacing="-0.5">12 840</text>
  <text x="430" y="172" font-size="12" fill="#64748B">Utilisateurs actifs</text>

  <!-- KPI 3 : Taux de conversion -->
  <rect x="604" y="84" width="178" height="96" rx="14" fill="#FFFFFF" stroke="#E2E8F0" filter="url(#soft)"/>
  <rect x="620" y="100" width="30" height="30" rx="9" fill="#FFF1F2"/>
  <path d="M627 122 l4 -4 3 2 5 -6" stroke="#F43F5E" stroke-width="2" fill="none" stroke-linecap="round" stroke-linejoin="round"/>
  <rect x="726" y="105" width="44" height="20" rx="10" fill="#FFF1F2"/>
  <text x="748" y="119" font-size="11" font-weight="700" fill="#F43F5E" text-anchor="middle">-2,3%</text>
  <text x="620" y="156" font-size="24" font-weight="700" fill="#0F172A" letter-spacing="-0.5">3,84%</text>
  <text x="620" y="172" font-size="12" fill="#64748B">Taux de conversion</text>

  <!-- ===================== LINE CHART ===================== -->
  <rect x="224" y="194" width="368" height="200" rx="16" fill="#FFFFFF" stroke="#E2E8F0" filter="url(#soft)"/>
  <text x="244" y="222" font-size="14" font-weight="700" fill="#0F172A">Revenus</text>
  <text x="244" y="238" font-size="11" fill="#94A3B8">Cette semaine</text>
  <!-- legend / toggle -->
  <rect x="494" y="208" width="80" height="24" rx="8" fill="#F8FAFC" stroke="#E2E8F0"/>
  <circle cx="510" cy="220" r="4" fill="url(#brand)"/>
  <text x="520" y="224" font-size="10.5" fill="#64748B">Aujourd'hui</text>

  <!-- gridlines -->
  <g stroke="#F1F5F9" stroke-width="1">
    <line x1="244" y1="268" x2="572" y2="268"/>
    <line x1="244" y1="302" x2="572" y2="302"/>
    <line x1="244" y1="336" x2="572" y2="336"/>
  </g>

  <!-- area + line -->
  <path d="M244 330 L290 312 L336 322 L382 286 L428 296 L474 258 L520 270 L566 246 L566 360 L244 360 Z" fill="url(#areaFill)"/>
  <path d="M244 330 L290 312 L336 322 L382 286 L428 296 L474 258 L520 270 L566 246" fill="none" stroke="url(#brand)" stroke-width="3" stroke-linecap="round" stroke-linejoin="round"/>

  <!-- highlighted point -->
  <circle cx="566" cy="246" r="5.5" fill="#FFFFFF" stroke="#6366F1" stroke-width="3"/>
  <g>
    <rect x="538" y="214" width="56" height="22" rx="7" fill="#0F172A"/>
    <path d="M563 236 l3 4 3 -4 z" fill="#0F172A"/>
    <text x="566" y="229" font-size="10.5" font-weight="600" fill="#FFFFFF" text-anchor="middle">€9,4k</text>
  </g>

  <!-- x labels -->
  <g fill="#94A3B8" font-size="10" text-anchor="middle">
    <text x="244" y="380">Lun</text>
    <text x="290" y="380">Mar</text>
    <text x="336" y="380">Mer</text>
    <text x="382" y="380">Jeu</text>
    <text x="428" y="380">Ven</text>
    <text x="474" y="380">Sam</text>
    <text x="520" y="380">Dim</text>
  </g>

  <!-- ===================== BAR CHART + DONUT ===================== -->
  <rect x="604" y="194" width="178" height="200" rx="16" fill="#FFFFFF" stroke="#E2E8F0" filter="url(#soft)"/>
  <text x="624" y="222" font-size="14" font-weight="700" fill="#0F172A">Sessions</text>
  <text x="624" y="238" font-size="11" fill="#94A3B8">Par jour</text>

  <!-- bars -->
  <g>
    <rect x="624" y="316" width="16" height="48" rx="5" fill="#E0E7FF"/>
    <rect x="648" y="296" width="16" height="68" rx="5" fill="#E0E7FF"/>
    <rect x="672" y="324" width="16" height="40" rx="5" fill="#E0E7FF"/>
    <rect x="696" y="284" width="16" height="80" rx="5" fill="url(#brandV)"/>
    <rect x="720" y="306" width="16" height="58" rx="5" fill="#E0E7FF"/>
    <rect x="744" y="272" width="16" height="92" rx="5" fill="#E0E7FF"/>
  </g>
  <g fill="#94A3B8" font-size="9.5" text-anchor="middle">
    <text x="632" y="380">L</text>
    <text x="656" y="380">M</text>
    <text x="680" y="380">M</text>
    <text x="704" y="380">J</text>
    <text x="728" y="380">V</text>
    <text x="752" y="380">S</text>
  </g>

  <!-- ===================== TOP SOURCES PANEL ===================== -->
  <rect x="224" y="408" width="368" height="116" rx="16" fill="#FFFFFF" stroke="#E2E8F0" filter="url(#soft)"/>
  <text x="244" y="434" font-size="14" font-weight="700" fill="#0F172A">Top sources</text>
  <text x="556" y="434" font-size="11" font-weight="600" fill="#6366F1" text-anchor="end">Voir tout</text>

  <!-- row 1 -->
  <text x="244" y="458" font-size="11.5" font-weight="500" fill="#0F172A">Recherche organique</text>
  <rect x="380" y="450" width="150" height="7" rx="3.5" fill="#F1F5F9"/>
  <rect x="380" y="450" width="126" height="7" rx="3.5" fill="url(#brand)"/>
  <text x="572" y="458" font-size="11.5" font-weight="700" fill="#0F172A" text-anchor="end">42%</text>

  <!-- row 2 -->
  <text x="244" y="482" font-size="11.5" font-weight="500" fill="#0F172A">Réseaux sociaux</text>
  <rect x="380" y="474" width="150" height="7" rx="3.5" fill="#F1F5F9"/>
  <rect x="380" y="474" width="84" height="7" rx="3.5" fill="url(#brand)"/>
  <text x="572" y="482" font-size="11.5" font-weight="700" fill="#0F172A" text-anchor="end">28%</text>

  <!-- row 3 -->
  <text x="244" y="506" font-size="11.5" font-weight="500" fill="#0F172A">Lien direct</text>
  <rect x="380" y="498" width="150" height="7" rx="3.5" fill="#F1F5F9"/>
  <rect x="380" y="498" width="48" height="7" rx="3.5" fill="url(#brand)"/>
  <text x="572" y="506" font-size="11.5" font-weight="700" fill="#0F172A" text-anchor="end">16%</text>

  <!-- ===================== DONUT / OBJECTIF ===================== -->
  <rect x="604" y="408" width="178" height="116" rx="16" fill="#FFFFFF" stroke="#E2E8F0" filter="url(#soft)"/>
  <text x="624" y="434" font-size="13" font-weight="700" fill="#0F172A">Objectif</text>
  <!-- ring track -->
  <circle cx="672" cy="478" r="30" fill="none" stroke="#F1F5F9" stroke-width="9"/>
  <!-- progress 72% : circumference ~188.5, dash 135.7 -->
  <circle cx="672" cy="478" r="30" fill="none" stroke="url(#ring)" stroke-width="9" stroke-linecap="round"
          stroke-dasharray="135.7 188.5" transform="rotate(-90 672 478)"/>
  <text x="672" y="476" font-size="16" font-weight="700" fill="#0F172A" text-anchor="middle">72%</text>
  <text x="672" y="490" font-size="8.5" fill="#94A3B8" text-anchor="middle">atteint</text>

  <text x="720" y="466" font-size="11" font-weight="700" fill="#0F172A">€34,7k</text>
  <text x="720" y="480" font-size="9.5" fill="#94A3B8">sur €48k</text>
  <rect x="720" y="490" width="48" height="16" rx="8" fill="#ECFDF5"/>
  <text x="744" y="501" font-size="9.5" font-weight="700" fill="#10B981" text-anchor="middle">+5,2%</text>
</svg>