<svg viewBox="0 0 480 320" xmlns="http://www.w3.org/2000/svg" role="img" aria-label="AI Knowledge Assistant">
  <defs>
    <linearGradient id="kbg" x1="0" y1="0" x2="1" y2="1">
      <stop offset="0" stop-color="#eef2ff"/>
      <stop offset="1" stop-color="#f5f3ff"/>
    </linearGradient>
    <linearGradient id="kacc" x1="0" y1="0" x2="1" y2="1">
      <stop offset="0" stop-color="#6366f1"/>
      <stop offset="1" stop-color="#8b5cf6"/>
    </linearGradient>
    <filter id="ksh" x="-20%" y="-20%" width="140%" height="140%">
      <feDropShadow dx="0" dy="8" stdDeviation="12" flood-color="#312e81" flood-opacity="0.12"/>
    </filter>
  </defs>
  <rect width="480" height="320" rx="20" fill="url(#kbg)"/>
  <!-- source document (your content) -->
  <g filter="url(#ksh)">
    <rect x="48" y="92" width="96" height="120" rx="10" fill="#ffffff"/>
  </g>
  <rect x="64" y="112" width="64" height="8" rx="4" fill="#c7d2fe"/>
  <rect x="64" y="130" width="48" height="8" rx="4" fill="#e0e7ff"/>
  <rect x="64" y="148" width="60" height="8" rx="4" fill="#e0e7ff"/>
  <rect x="64" y="166" width="40" height="8" rx="4" fill="#e0e7ff"/>
  <!-- connector -->
  <path d="M150 150 H196" stroke="#a5b4fc" stroke-width="3" stroke-dasharray="6 6" stroke-linecap="round"/>
  <!-- AI answer bubble -->
  <g filter="url(#ksh)">
    <rect x="208" y="84" width="224" height="152" rx="18" fill="#ffffff"/>
  </g>
  <circle cx="240" cy="116" r="14" fill="url(#kacc)"/>
  <path d="M240 108.5 l2.3 4.7 5.2 .8 -3.8 3.6 .9 5.2 -4.6-2.5 -4.6 2.5 .9-5.2 -3.8-3.6 5.2-.8z" fill="#ffffff"/>
  <rect x="264" y="111" width="96" height="9" rx="4.5" fill="#312e81"/>
  <rect x="232" y="148" width="176" height="9" rx="4.5" fill="#e0e7ff"/>
  <rect x="232" y="166" width="160" height="9" rx="4.5" fill="#e0e7ff"/>
  <rect x="232" y="184" width="176" height="9" rx="4.5" fill="#e0e7ff"/>
  <rect x="232" y="202" width="96" height="9" rx="4.5" fill="#c7d2fe"/>
</svg>
